<?xml version="1.0" encoding="utf-8"?>
<!-- Generator: Adobe Illustrator 18.0.0, SVG Export Plug-In . SVG Version: 6.00 Build 0)  -->
<!DOCTYPE svg PUBLIC "-//W3C//DTD SVG 1.1//EN" "http://www.w3.org/Graphics/SVG/1.1/DTD/svg11.dtd">
<svg version="1.1" id="Capa_1" xmlns="http://www.w3.org/2000/svg" xmlns:xlink="http://www.w3.org/1999/xlink" x="0px" y="0px"
	 viewBox="0 0 1280 800" enable-background="new 0 0 1280 800" xml:space="preserve">
<g id="_x3C_Grupo_x3E_">
	<path id="LC" fill="#DCF9DD" stroke="#FFFFFF" stroke-width="1.5" stroke-miterlimit="10" d="M816.2,166.4c0.6,4.5,0,8-4.1,11.3
		c-5.9,4.9-7.8,11.3-1.6,18.1c2.8,2.9,5.7,6.1,5.2,10.4c-0.6,4.9,2,6.1,5.8,7.4c5.2,2,9.3,6.4,14.9,7.8c21.3,5.5,22,5.7,20.9,27.5
		c-0.9,17,8.8,25.5,24.1,28.1c5.5,0.9,8.3,2.6,9,8.3c2,17,8.4,33,9.4,50.1c0.3,4.8-0.7,8.1-4.6,11.2c-5.5,4.2-7.1,8.7-3.9,16.2
		c4.2,10-2.3,18.8-7.7,27.1c-10,5.7-18.3-0.1-25.1-5.8c-7.2-6.1-14.3-10-23.9-10c-4.8,0-9.9-1.6-12-5.8
		c-5.2-9.3-13.8-14.6-22.2-20.4c-2.9-6.8-6.5-12.9-12.6-17.5c-2.6-2-4.8-4.8-5.8-8c-4.3-13.8-14.9-20-27.8-24.5
		c-9.6-3.3-18.8-6.5-29-3.8c-1.3,0.3-2.9,0.3-3.9-0.3c-13.8-9.3-28.3-2.5-42.5-1.9c-11.9,0.6-23.8,1.3-35.7-0.3
		c-7.1-3.6-13-9-18.6-14.6c-4.2-4.2-8.4-8.6-13.9-11c-5.9-2.8-7.5-7-4.3-12.9c2.8-5.8,8-8.6,13.6-10.9c29.7-12.5,59.3-25.5,89-38
		c5.9-2.5,11.2-5.7,15.2-10.9c6.1-8,15.7-10.9,24.1-15.7c14.3-4.1,28.3-9.1,42.2-14.1C798.4,160.9,808.1,161.2,816.2,166.4z"/>
	<path id="SB" fill="#657F67" stroke="#FFFFFF" stroke-width="1.5" stroke-miterlimit="10" d="M512.2,629.7
		c-2,8.4-3.9,16.8-6.2,25.1c-1.6,5.9-3.2,11.6,2.6,16.2c1.2,0.9,2.3,3.5,1.9,4.3c-6.8,11.3,4.3,17.7,7.4,26.2
		c1.6,4.5,2.6,8.8,2,13.5c-0.1,1.9-0.1,4.2-2.8,4.5c-2.8,0.4-3-1.9-3.5-3.8c-1.9-8.7-8-10.7-15.9-9.7c-5.7,0.6-11.3,1-16.8,1.6
		c-3,0.3-6.2,1-7.8-4.8c-2,8.7,2.2,11,7.1,12.6c2,0.6,3.9,1,4.1,3.5c0.3,3.3-2.6,3.2-4.6,4.2c-11.7,5.5-21.7,1-31.6-5.4
		c-3.9-2.6-1.7-4.9-1-7.5c3.9-13.9,1.4-26.7-6.7-38.8c-3.2-4.8-6.2-10.6-4.8-16.7c1.7-6.5-0.7-5.9-5.2-4.6c-7.4,2-10.9-0.3-8.1-8.3
		c1.3-4.1,2.6-8.3,4.2-12.2c1.6-4.1,1.6-6.4-2.5-10c-4.9-4.3-10.3-10.3-7.1-18.7c0.4-1.2,0.9-3,0.3-3.6c-10.6-11.7-1.7-21,3.5-30.9
		c3.9-7.5,2.3-16.2,3.2-24.3c0.7-6.7,2.5-12.6,5.5-18.7c3.5-6.8,7.1-9.7,14.3-4.2c3-11.7,5.8-22.6,8.6-33.5c0.4-0.3,0.9-0.6,1.3-0.9
		c13.2,1.3,23.8,9.4,35.9,13.3c14.6,6.2,29.4,12.5,45.4,14.8c5.4,4.5,3.2,10,2.2,15.4c-6.2,31-12.8,61.9-20.7,92.5
		C515.4,623.9,514.5,627.1,512.2,629.7z"/>
	<path id="PA" fill="#97BF9B" stroke="#FFFFFF" stroke-width="1.5" stroke-miterlimit="10" d="M715.2,514.9c2.8,6.1,7.4,3,11,1.9
		c4.5-1.6,6.1-0.6,6.1,4.2c-0.1,5.4-0.1,10.6,0.3,15.9c0.6,6.8,0,11.6-8.6,7c-2.6-1.4-4.3-0.6-4.6,2.5c-0.7,7.7-2.9,14.9-5.5,22.2
		c-4.6,12.8,5.8,22.8,9.1,34.2c0.9,2.9,8.7,9.6,14.3,1.3c1.2-1.7,2.8-2.8,4.9-2.9c14.2-0.9,28.4-1.6,42.8-2.5
		c3.8-0.3,2.9,2.6,3.5,4.8c-1.4,5.7-4.8,10.6-5.9,16.2c0,0.6-0.3,1.2-0.6,1.7c-2.6,4.8-11,3.3-11.3,10.6
		c-6.2,11.2-6.7,11.2-16.5,0.7c-3.2,2.5,0.1,6.4-2,9.1c-0.4,0.9-1.3,2.5-1.6,2.3c-12.5-3.8-23.6,5.9-35.8,3.5
		c-4.5-0.9-8.6-0.9-12.5,1.6c-4.9,3-9.9,5.4-15.9,3.5c-2.5-0.7-4.8-0.1-6.2,1.9c-2.9,4.1-7.1,5.7-11.6,7.2c-2.3,0.7-4.5,2-5.4,4.2
		c-2.9,7.2-7.5,11.7-15.5,13.6c-4.2,0.9-6.5,7.1-11.7,6.8c-17.2-1.3-33.9,8.1-51.3,2c-2.6-0.9-6.4-0.3-6.2-4.8
		c1.6-5.5,1.9-11.3,1.6-17c-2-13.2,0-26.4,0.9-39.4c0.4-6.8,7-8.1,12.6-9.3c17.5-4.1,17.5-3.9,16.4-21.9c-0.6-8.7-4.3-16.7-4.9-25.2
		c-0.3-4.6-1.4-9.1,0.4-13.8c7.2-6.5,15.5-8.6,24.8-5.7c7.2,2.2,13.5,2.8,18.1-5.1c2.2-3.5,6.7-4.1,10.6-4.6
		c7.5-1.2,14.9-2.8,22.5-4.2c5.2-1,7.1-3.2,3.8-8.1c-1.2-1.6-2.3-3.2-3.3-4.9c-2-3.9-7.1-7.5-4.3-12.3c2.3-3.9,7.8-2.5,12-2.6
		c5.4-0.3,10.7,0.1,15.1,3.9C707.3,515.9,711.5,513.9,715.2,514.9z"/>
	<path id="LB" fill="#DCF9DD" stroke="#FFFFFF" stroke-width="1.5" stroke-miterlimit="10" d="M816.2,166.4
		c-15.9-2-30.7-0.4-45.1,8.4c-6.4,3.9-15.2,3.6-22.9,5.4c-10.4-1.4-21-1.6-31.6-1.4c-6.2,0.1-12.3-1.3-16.2-6.1
		c-10.7-13-25.4-17.2-40.9-20c-3-0.6-5.4-1-3.5-4.8c-0.9-3,0.7-5.1,2.9-6.8c2.5-2,5.9-3.9,3-8c-1.3-1.9-0.1-3.3,1.3-3.9
		c6.1-2.3,7.7-5.5,6.1-12.3c-1.7-8,7.4-8.1,11.7-11.6c4.5-3.5,4.9,2.3,6.4,4.8c1,1.7,2.3,4.3,4.1,2c2.3-2.9,4.8-7,1.4-10.7
		c-3.3-3.6-8-5.8-10.6-10.3c-3.6-6.1-2.2-9.9,4.8-9.9c4.3,0,10.6-5.1,13,4.5c0.9,3,5.7-1.4,7.7-3.5c7.5-7.2,29.1-10.4,38.1-5.4
		c4.3,2.5,8.7,4.9,13,7.2c16.1,8.3,32.5,10.9,49.4,2.9c6.7-3,12.8-2.9,17,4.3c1.9,3.2,4.5,3.9,7.1,0.7c4.3-5.1,8.4-3.2,13-0.3
		c12.9,8.3,26.1,15.9,38.8,24.3c3.5,2.3,10.9,2.9,9,8.7c-2,6.7-4.2,16.7-12.3,16.7c-16.8,0.1-25.4,10.1-33.6,22.2
		c-2,2.9-5.2,5.1-8.1,7.4c-2.8,2.3-4.5,5.4-7.8-0.9C829,165.8,822.2,164.2,816.2,166.4z"/>
	<path id="MAI" fill="#DCF9DD" stroke="#FFFFFF" stroke-width="1.5" stroke-miterlimit="10" d="M306.2,535.8
		c-10.4-9.4-3.2-14.9,4.6-20.4c1-0.7,2-1.7,2.9-2.5c-0.4-1-0.6-1.9-1-2.2c-12.6-6.2-16.7-14.9-9.9-28.4c3-5.9,0.9-13,0.4-19.7
		c-0.4-6.7-0.9-13.3-0.9-19.9c-0.1-15.7,0.9-16.8,16.2-20.9c9.3-2.5,18.6-5.1,27.8-7.5c0.9-0.3,1.6-0.9,2.9-1.6
		c-6.4-2.2-12.3-4.2-20.4-7.1c11.3-7.4,20.7-14.3,30.9-19.9c7.8-4.3,9.4-8.7,3.9-15.8c-1.7-2.3-2.5-5.4-3.6-8.1
		c-1.6-5.8,2.6-6.2,6.2-5.7c11,1.7,22.2,2.8,32.5,7.2c3.2,1.4,6.1,2,9.3,1.6c5.2,2,11.2,2.6,15.7,6.5c4.9,10.7,2.5,17.8-8.1,23.9
		c-5.4,5.8-0.9,13.2-3.3,19.4c-2.6,8-7.2,15.4-8.6,23.8c2.5,4.8,7,2.2,10.6,2.6c3.9,0.4,7.8-0.1,11.7,1.2c11,6.8,11.3,7.7,4.1,18.3
		c-2.8,4.1-4.6,8.8-9.4,11.2c-18.6,27.4-37.5,54.5-55.4,82.2c-5.1,7.8-10,9.7-18.4,7.2c-5.8-1.7-11.9-4.2-18.3-1.6
		C320.7,551.9,311.8,545.4,306.2,535.8z"/>
	<path id="PÑ" fill="#B5E5BA" stroke="#FFFFFF" stroke-width="1.5" stroke-miterlimit="10" d="M802,347.7c9,3.2,16.2,7.7,20.3,17.4
		c2.2,5.2,8.3,7.1,14.5,6.7c9.1-0.7,16.1,2.9,22.5,9.9c6.2,6.7,15.2,8.4,24.3,8.3c3.3,7,3.5,10.1-5.9,13.6
		c-11.3,4.2-20.3,4.2-32,1.4c-9.7-2.3-22.8,0.6-31.3,9.6c-5.8,6.1-12.3,7-18.8,2.9c-9-5.8-16.4-2.2-24.1,1.9c-1.7,0.9-3.6,2-5.5,1.9
		c-14.9-1.2-21.9,11.3-32,18.4c-9.3,4.6-18.6,9-29.4,5.9c-11.4-1.9-23-0.6-34.5-0.7c-11.2,0.1-22.3,0.4-33-3.6
		c-4.6-7.2-1.7-14.5,1.9-20.6c10.3-17.5,12.9-36.8,14.9-56.4c2.3-6.2,3.5-12.9,7.4-18.6c2.3-3,5.5-4.1,8.8-2.5
		c11,5.1,22.8,3.5,34.3,3.6c4.3,0.1,8.7-0.3,12.9,0.6c5.2,1.2,9.7,1.2,13.6-3.2c2.9-3.2,7.1-3,11.2-3.3c17.2-1,34.3,2.6,51.6,2.2
		C797.1,343.2,800,344.6,802,347.7z"/>
	<path id="PUD" fill="#B5E5BA" stroke="#FFFFFF" stroke-width="1.5" stroke-miterlimit="10" d="M408.4,366.4
		c-5.8,7.2-8.6-1-12.9-2.2c-9.9-2.6-19.9-4.2-29.9-6.2c-3-0.6-5.2,0.3-5.7,3.8c-0.9-3.9-1.7-7.7-2.6-11.6c-0.7-3.6-1.4-7.8-6.2-7.7
		c-3.9,0.1-8.4-0.9-10.9,4.6c-2.9,6.5-7,10.3-15.5,5.7c-5.5-2.9-12.3-5.2-20,0.4c-4.9,3.6-14.1-0.1-20-4.5c-2.9-2-5.2-2.6-8.1-1.4
		c-3.9,1.6-1.7,4.1-1.2,6.5c0.7,3.6-1.7,5.7-4.8,6.4c-3.9,0.9-7.5-0.6-9.6-3.8c-3.9-6.4-6.5-13.3-0.6-20c2.5-2.8,4.3-4.8,1.4-8.3
		c-0.9-1.2-1.2-3.3-0.7-4.8c2.9-10.1,5.9-20.3,9.4-30.1c0.4-1.4,3-2.8,4.8-2.9c7.4-0.9,12.6-7.4,20.4-7.8c2.8-0.1,4.1-3.6,4.8-7
		c4.3-22,1.3-43.9-1.4-65.8c-0.3-2.3-0.3-4.6-0.4-7c-0.4-16.8-0.4-17.1,15.9-19.1c5.5-0.7,6.5-3,6.1-7.8c-0.4-4.6-0.1-9.3-0.1-15.9
		c8.4,8.4,16.1,15.9,23.6,23.5c8,7,17.8,12.2,22.6,22.3c-8,11.3-18.8,19.9-27.8,30.4c-10.6,6.1-11.2,15.9-10.4,26.5
		c0.3,3.9,2.8,5.8,5.4,7.7c5.9,10.7,17.5,10.9,27.2,13.5c7.5,2,15.4,3.8,23.3,4.9c14.5,2.2,14.8,2.3,12.6,16.8
		c-0.6,7.4,0.4,14.6,1.7,21.7c0.4,2.6,1,5.7,3.9,6.5c10.3,3.5,10.4,11.6,10,20.3c-0.1,3.6,0.3,7.4-1.6,10.7
		C410.6,366.1,409.7,366.5,408.4,366.4z"/>
	<path id="QUIL" fill="#B5E5BA" stroke="#FFFFFF" stroke-width="1.5" stroke-miterlimit="10" d="M366,205.9
		c-6.2-8.4-16.7-12.8-21.6-22.3c8.1-5.1,15.7-10.4,15.9-21.3c0-3.5-0.1-6.7,4.8-6.8c2.3-0.1,3.3-2.5,3.3-4.3
		c0.1-9.7,9.6-11.6,14.6-17.1c2.5-2.6,8.1-2,9.3,3.3c0.9,4.1,3.2,5.5,7.4,6.7c1.2-7.2,1.3-18.3,12-5.8c1.6,1.9,7.2,2,10.1-0.7
		c3.6-3.3,0.4-5.9-1.6-8.4c-7.2-9.4-14.5-19-22.5-29.6c9.4-2.6,17.8-5.1,26.4-7.1c4.8-1.2,7.4-3,8.1-8.4c1.2-7.8,7.4-10.4,14.2-5.7
		c4.5,3.2,8.1,4.9,13.5,2.5c5.5-2.5,7.4,4.8,11.7,5.7c4.8,1,8.4,1.9,6.5,8c-0.3,0.9,0.1,2.8,0.4,2.8c12.3,1.4,3.2,13.2,8.6,18.1
		c1.4,1.4-0.7,3.8-2.6,4.5c-8.8,3.9-10.1,13-14.2,20.3c0.4,5.9,1.6,11.7,3.6,17.4c1.2,3.3,2.5,7,0.6,10.6
		c-13.5,5.5-13.3,5.5-7.8,20.3c1.3,3.6,3.2,7.2,2,11.3c-1.6,3-4.8,3.2-7.5,4.1c-3.8,1.2-8.3,2-10.6,5.1
		c-12.8,16.7-31.4,16.7-48.7,14.3C389.3,221.4,374.9,218.1,366,205.9z"/>
	<path id="FLO" fill="#B5E5BA" stroke="#FFFFFF" stroke-width="1.5" stroke-miterlimit="10" d="M636.4,439c11,1.9,22.2,3.3,33.5,2.8
		c11.9,2.9,24.2-0.7,36.2,1.9c7.7,0.1,15.7,1.4,22-4.8c1.7-1.7,4.2-1.4,5.9,0.7c-5.5,5.5-3.5,12.5-3,18.8c0.3,6.1,6.1,4.2,9.4,4.5
		c5.5,0.4,8.4,1.6,8.1,8c-0.3,8-5.7,4.5-9.3,4.6c-3.3,0.1-6.7-0.1-9.9-0.7c-6.7-1.2-12.5-2.3-11.2,8.3c0.9,7.1-7,2.3-9.4,5.4
		c14.2,15.7,14.5,16.2,6.4,26.5c-4.8,4.1-8.4,5.4-13.9-0.3c-6.4-6.5-15.7-1.9-25.5-3.2c4.6,7.1,7.8,13.2,12.2,18.4
		c5.2,6.4,1.7,8.1-3.9,9.3c-6.8,1.3-13.6,2.6-20.4,4.1c-6.7,1.3-14.3-0.4-17,9.7c-0.9,3.5-8.3,4.2-11.9,2.3
		c-10-5.1-19.1-1.9-28.6,0.7c-7.2-2.8-6.5-9.1-5.7-14.6c0.7-4.8,0.7-9.1-1-13.5c-1-3.6-2.2-7.2-2-11c7.1-11.7,6.8-24.5,4.3-37.4
		c-1-10-1.2-20-2.3-30c2-4.3-2.9-9.7,2.2-13.5C613.6,433.5,625.1,435.4,636.4,439z"/>
	<path id="PIN" fill="#657F67" stroke="#FFFFFF" stroke-width="1.5" stroke-miterlimit="10" d="M601.9,527.7
		c1.4,4.5,4.6,8.3,1.2,14.2c-2,3.6-0.4,10,3.3,14.2c-1.9,18,7.4,34.5,7.2,52.5c0,5.8-0.1,8.8-7,9.9c-7.7,1-17.7,0-22.5,5.5
		c-4.8,5.7-1.2,15.2-1.4,23c-0.3,6.7-1.9,13-3.3,19.4c-4.6-0.1-9.3-0.4-13.8-0.4c-11.7,0-15.7-4.2-14.9-15.9
		c1.2-17.2,1.2-17.4-16.7-18.7c-7.2-0.6-14.5-1-21.7-1.6c0.9-14.9,6.7-28.8,9.3-43.3c3.5-19.7,8.6-39.1,13-58.8
		c7.2-4.6,14.6,0,22-0.3c4.9-0.3,9.7,1.4,14.6,2c5.9,1.7,11.6,0.6,17.5-0.9C592.9,527.4,597.3,524.8,601.9,527.7z"/>
	<path id="VI" fill="#DCF9DD" stroke="#FFFFFF" stroke-width="1.5" stroke-miterlimit="10" d="M655.8,147.7c6.1,2,11.9,5.4,18.1,5.9
		c9,0.7,16.1,4.3,21.4,11c7.4,9,16.2,12.5,28,11.6c8.3-0.6,17.4-2.9,24.8,3.8c-36.8,31-82.5,44.8-125.4,63.9
		c-5.4,2.5-11.4,3.9-14.1,10c-3.9-1.3-8.6-1-11.3-5.1c0.1-4.5,2.6-8.7,1.6-13.3c0.3-7.7,2.2-14.8,7.8-20.4
		c4.6-4.8,2.8-11.2,4.8-16.5c7.7-7.7,10.1-22.3,5.5-32.6c-1.4-3.2,8.3-16.1,13.5-17.1c5.2-0.9,9.3-1.6,13.6-6.2
		C648.3,138.3,651.6,146.4,655.8,147.7z"/>
	<path id="HUE" fill="#DCF9DD" stroke="#FFFFFF" stroke-width="1.5" stroke-miterlimit="10" d="M611.3,198.5
		c2.3,8.3,2,15.8-5.5,21.6c-5.2,4.1-2.5,11.2-5.8,16.1c-5.4,0.9-8.6-3-12-5.9c-19.4-16.2-39.3-31.7-63.6-40.3
		c-14.9-6.1-29.3-13.6-44.6-18.6c-2.2-0.7-4.3-1.4-5.4-3.9c-1.7-5.7-3.5-11.2-5.1-16.8c-1-3.6-2.8-7.5,1.3-10.6
		c9-2.3,14.8-9.6,21.3-15.2c4.9-4.3,10.6-6.4,14.8-4.8c5.5,2.2,8.6,8,6.2,15.5c-2.9,10.1,8.4,9.9,12.6,12c6.1,3,7.5,4.9,5.2,10.7
		c-2.2,5.5,0.9,12,3.2,14.3c5.9,6.4,9.7-3,14.8-4.8c0.9-0.3,1.2-2.3,1.7-3.5c2.8-5.7,7.2-9.6,13.3-7.7c6.5,2,6.4,8.4,5.7,14.3
		c-1.2,8.3,3.9,14.2,11.7,14.8c3.5,0.3,4.3-3.8,7.7-3.9c4.1,0,7.8-6.5,11.6-2.6s-4.9,5.4-3.9,9.7c2.8,2.8,8.7-0.9,10,4.2
		c1,3.9-3.9,2.2-5.8,4.8C604.7,199.9,607.6,203.3,611.3,198.5z"/>
	<path id="CERR" fill="#B5E5BA" stroke="#FFFFFF" stroke-width="1.5" stroke-miterlimit="10" d="M412.5,392
		c10.4-1.2,14.1-8.6,9.9-20c5.8-3,8.8,1.7,11.4,4.9c6.5,7.7,13.8,8.7,23,5.8c8.4-2.8,16.7-6.5,25.9-5.2c4.6,4.5,2.9,9.7,1,14.6
		c-4.5,11.6-9,23.2-12.9,35.1c-4.3,11.4-8.1,23.2-13,34.3c-3.5,7.8-0.9,16.5-5.1,24.1l-0.6,0.1c-10.6-4.6-21.2-9.3-31.6-13.9
		c2.5-4.2,4.5-8.8,7.7-12.5c5.7-6.2,4.9-10.9-1.7-15.4c-6.5-2.6-13.3-0.6-19.9-1.3c-2.3-0.3-6.2,1.9-6.1-3.2
		c2.6,0.3,5.2-16.2,9.6-23.6C413.8,408.3,408.9,399.6,412.5,392z"/>
	<g id="PH">
		<path id="PH_1_" fill="#97BF9B" stroke="#FFFFFF" stroke-width="1.5" stroke-miterlimit="10" d="M306.2,535.8
			c8.1,7.2,17.5,13.5,22.2,23.9c-0.7,0.7-1.7,2-2,1.9c-7.8-3.6-14.2,1.9-21.2,3.2c-5.2,0.9-9.1,5.4-7.1,10
			c2.8,6.4-0.4,24.3-5.7,28.3c-7.4,5.5-11.7-0.1-16.5-5.1c-5.7-5.8,1-6.8,3.5-8.1c6.1-2.9,3-8.8,4.3-12.9c0.9-3-4.5-6.7-9.1-7.4
			c-1.7-0.7-3.3-1.6-2.2-3.9c3.2-3.2,4.2-6.1,0.6-10c-3-3-5.4-6.7-8-10.3c-2-3-1.7-5.9,1.7-7.4c2.6-1.2,7-5.8,8.3-1.6
			c2.8,9.1,10.7,4.6,15.7,7.5c8.1,4.9,9.3-5.9,14.6-7.8C305.5,535.9,305.8,535.8,306.2,535.8z"/>
		<path id="PH_2_" fill="#97BF9B" stroke="#FFFFFF" stroke-width="1.5" stroke-miterlimit="10" d="M272.3,565.5
			c0.7,1.3,1.4,2.6,2.2,3.9c-5.7,2.8-7.7,8.8-11.9,12.9c-1.9,1.7-3.3,4.8-6.2,2c-3-2.8,0.7-4.1,1.9-5.4
			C262.8,574.3,267.6,570,272.3,565.5z"/>
	</g>
	<g id="PIR">
		<path id="PIR_2_" fill="#DCF9DD" stroke="#FFFFFF" stroke-width="1.5" stroke-miterlimit="10" d="M577.7,683.3
			c12.6,5.4,25.4,5.2,38.4,1.9c6.1-1.4,12-5.1,18.7-1.3c2.5,1.4,5.1-1,6.5-3.3c2.5-3.8,4.9-6.8,10.4-5.5c4.8,1.2,5.4-3.2,6.1-6.1
			c1.6-6.2,6.1-8.1,11.2-11c8.3-4.6,16.4-7.1,25.8-9c8.8-1.7,16.5-7.4,25.8-2.2c0.3,0.1,0.9,0.3,0.9,0.3c8.4-10.9,20.1-3,30.1-5.4
			c0.9,3,1.7,6.1-3.5,5.7c-4.1-0.3-7.8,1.2-11.7,1.9c-7.1,1.4-8.1,5.9-6.5,11.7c0.6,2.3,3.3,4.9-1.3,5.8c-5.2,1-10.7,1.2-14.6,5.5
			c-4.9-6.5-12-0.4-17.5-3c-6.8-3.2-11.6,0-11.3,7.8c0.1,4.8,1.9,10.1-5.1,12c-3.8,1-8.4,5.2-8.4-3.3c0-3-2.3-2.8-4.2-1.9
			c-1.9,0.9-5.2,1.4-3.2,4.8c3.5,5.5-1.7,5.5-4.2,6.1c-4.5,1-8.8,4.2-12.5,4.6c-17.8,2.5-29.3,21.6-49.1,17.8
			c-0.9-0.1-2,0.1-2.9,0.6c-4.2,1.9-8.7,5.4-12.6,0.6s3.8-7,3.6-12.2c-6.4-1.2-13.8-1.6-15.9-9.7
			C569.3,690.3,574.7,687.4,577.7,683.3z"/>
		<path id="PIR_1_" fill="#DCF9DD" stroke="#FFFFFF" stroke-width="1.5" stroke-miterlimit="10" d="M782,619.6
			c0-6.2-1.3-12.8,5.9-16.2c7.2-0.9,7.7-7,9.4-12c1,0.1,2.3,0.3,2.9-0.3c9.6-9.1,21.7-7.1,33.2-8.4c4.3-0.4,7.8-0.4,10.6,3.2
			c2.8,2.9,2.2,6.4-0.9,7.2c-6.5,1.7-13.6,3.6-20,2.8c-3.9-0.6-5.8-2.3-7,2.6c-0.4,2-2.2,3.6-4.3,3.2C796.5,598.8,791,612,782,619.6
			z"/>
		<path id="PIR_3_" fill="#DCF9DD" stroke="#FFFFFF" stroke-width="1.5" stroke-miterlimit="10" d="M841.6,579.7
			c-3.5-1.6,0-6.4-3.6-8c-0.3-1,0-1.9,1.2-2.2c7.4,1.7,13.3,2.9,19.1-5.8c4.1-6.1,8.3,2.5,11.6,5.9c-4.6,2.3-10.3,2.2-14.1,6.8
			c-2.3,2.8-6.1,2-9.3,0.3C843.2,575.1,841.5,575.6,841.6,579.7z"/>
		<path id="PIR_4_" fill="#C9FFCE" stroke="#FFFFFF" stroke-width="1.5" stroke-miterlimit="10" d="M770.3,631.7
			c-3.9-11.7,6.2-8.4,11.3-10.6c0.4,2.9,1.4,6.4-3.2,6.2C774.5,627.4,772.5,629.4,770.3,631.7z"/>
	</g>
	<g id="SJM">
		<path id="SJM_2_" fill="#97BF9B" stroke="#FFFFFF" stroke-width="1.5" stroke-miterlimit="10" d="M839.1,569.6
			c1.3-1.9,2.3-3.6,2.5-6.2c0.3-4.9,1.2-8.4,8.3-5.7c8.1,3.2,13.5-1.4,16.2-10.6c2.5,16.4,18,10.3,25.7,17c1.3,1.2,1.3,2.2,0,3.3
			c-7.1,2-14.2,5.5-21.9,2.3c-5.2-2.6-9.6-5.9-15.1,1.2C850.5,576.2,844.1,573.8,839.1,569.6z"/>
		<path id="SJM_1_" fill="#97BF9B" stroke="#FFFFFF" stroke-width="1.5" stroke-miterlimit="10" d="M844.1,585.5
			c-3.3-1.3-7.1-3.2-10.3-0.4c-4.3,3.8-8.6,2.6-12.8,0.1c-5.1-2.9-8.6-1.9-10.9,3.9c-1.6,3.9-8.8,4.8-12.8,1.9
			c1.4-12.6,3.6-15.4,17.1-12.9c9.9,1.9,16.5-0.9,23.3-6.7c6.1,0.4,1.3,5.8,3.6,8C843.3,581.2,844.4,583,844.1,585.5z"/>
		<path id="SJM_3_" fill="#97BF9B" stroke="#FFFFFF" stroke-width="1.5" stroke-miterlimit="10" d="M891.6,567.2c0-1.2,0-2.2,0-3.3
			c1.6-0.3,3.2-0.4,4.8-1c3.2-1.2,6.5-2.2,8.7,1.3c1.4,2.3,1.9,5.4-2.9,3.9c-1.6-0.4-3.2-0.6-4.8-0.7
			C895.5,567.4,893.6,567.4,891.6,567.2z"/>
	</g>
	<path id="LR" fill="#DCF9DD" stroke="#FFFFFF" stroke-width="1.5" stroke-miterlimit="10" d="M802,347.7
		c-21.7-2.5-43.6-4.1-65.5-3.9c-1.6,0-3.9,0.1-4.2,1.9c-2.3,10.4-8.7,5.7-14.9,4.6c-7.8-1.2-15.9-0.4-23.9-0.4
		c-8.3,0-16.8,1-24.1-4.2c-3.5-2.5-5.4-0.1-7.4,2.2c-2.9-2.8-1.6-6.2-1.3-9.4c0.6-5.4,0.6-10.6,0.1-15.9
		c-0.9-10.9-4.2-20.1-15.1-24.8c-2.2-2.2-5.2-4.1-3.8-8c20.3,0.6,40.3-0.3,60.4-3.3c5.4-0.7,12.2-3.9,16.5,4.2
		c1.6,3,6.8,1.6,10.3,0.4c13.2-4.5,49.3,10,52.2,23C785.1,328.5,802.3,332.5,802,347.7z"/>
	<path id="PRO" fill="#DCF9DD" stroke="#FFFFFF" stroke-width="1.5" stroke-miterlimit="10" d="M642.2,289.7c1.3,2,2.6,4.2,3.9,6.2
		c0.6,11.2-6.4,18.6-13.2,25.9c-1.6,1.7-4.3,1.2-6.7,0.6c-2.6-0.7-5.2-2.3-7.7-1.7c-15.9,3.6-33.3,2.9-47.2,13.5
		c-8.3-9.7-8.6-22.3-11.9-33.8c-0.7-7.8,0.3-15.4,3.9-22.2c7.1-13.6,21.4-20.1,31.7-30.6c0.6-0.6,1.9,0,2.8,0.4
		c2.8,3.3,10-1.3,10.7,5.9c-0.6,3-4.5,6.5,1.2,9C623.1,268.8,631.3,281,642.2,289.7z"/>
	<path id="CIS" fill="#B5E5BA" stroke="#FFFFFF" stroke-width="1.5" stroke-miterlimit="10" d="M533.5,513.9
		c-17,0.1-31.3-7.2-45.9-14.5c-1.4-2.2-1.4-4.5-0.6-6.7c6.5-16.7,11.7-33.8,20.6-49.6c0.9-0.6,1.9-1,2.9-1.3
		c12.5,1.2,24.1,4.9,35.5,9.9c4.9,2.8,6.8,6.8,5.4,12.5c-3.6,13.8-6.4,27.7-9.9,41.4C540.3,509.7,539.6,514.5,533.5,513.9z"/>
	<path id="BOS" fill="#97BF9B" stroke="#FFFFFF" stroke-width="1.5" stroke-miterlimit="10" d="M517.7,577.7
		c-16.6,0.1-30.6-6.9-44.9-14c-0.8-0.4-1.4-1-1.7-1.8c-0.7-1.8-0.6-3.6,0.1-5.4c6.4-16.3,11.5-33.1,20.1-48.7
		c0.4-0.7,0.9-1.2,1.6-1.5c0.3-0.2,0.7-0.3,1.1-0.4c0.5-0.2,1-0.2,1.5-0.2c14.9,2.2,34,7,40.6,10.2c0.2,0.1-10.8-2.5-5.6-0.3
		c4.9,2,7.1,1.4,5.6,6.9c-3.6,13.8-6.9,33.1-10.4,46.9C524.5,573.5,523.7,578.2,517.7,577.7z"/>
	<path id="ESP" fill="#B5E5BA" stroke="#FFFFFF" stroke-width="1.5" stroke-miterlimit="10" d="M508.3,443.8
		c-5.8,19-15.5,36.4-20.6,55.7c-11.7-4.6-23.3-9.3-35.1-13.9c-3.3-19.3,7.8-34.9,12.9-52.2c0.7-2.5,1.9-4.9,2.8-7.4
		C482.8,429.4,496.7,434.1,508.3,443.8z"/>
	<path id="SR" fill="#B5E5BA" stroke="#FFFFFF" stroke-width="1.5" stroke-miterlimit="10" d="M533.5,513.9
		c7.1-4.2,5.5-12.2,7.4-18.4c3-10.3,4.2-21.3,7.7-31.4c2.2-6.1-0.7-8.1-4.5-10.6c6.4-3.9,12.2-0.9,18.1,1.3c2.6,2.6,2.8,6.4,4.2,9.6
		c3.9,18.7,5.5,37.8,8.4,56.7c0.6,3.5,0.4,7.2-2.2,10.3c-12.9,0.1-25.4-2.6-38.1-3.9C534.5,522.9,538.9,518.1,533.5,513.9z"/>
	<path id="EC" fill="#B5E5BA" stroke="#FFFFFF" stroke-width="1.5" stroke-miterlimit="10" d="M482,378.1
		c-5.1,1.3-10.4,1.9-15.2,4.1c-15.7,7.1-29.6,7.5-40.3-8.6c-0.7-1-2.9-1.2-4.5-1.6c-4.6-1.6-10.1-1.3-13.8-5.5
		c0.6-0.3,1.2-0.7,1.6-1c3.2-5.1,1.3-11.2,1-16.5c-0.4-8.3,3.6-9.9,10.4-8.7c5.7,0.9,10.9,3,16.7,3.5c7.2,0.6,11.9-1.6,10.3-10.1
		c-0.4-5.7,3.3-7.8,7.8-9.3c10.9,1.2,19.1-7.1,29.4-8.3c6.4-0.6,8.6,3.5,9.7,8.8c2.6,12.5,1.9,24.9,1.6,37.4c0,2.9,1.7,4.5,3.8,6.4
		c5.4,5.4,3.8,10.4-3.5,11.6C492,380.9,486.7,381.6,482,378.1z"/>
	<path id="ÑU" fill="#DCF9DD" stroke="#FFFFFF" stroke-width="1.5" stroke-miterlimit="10" d="M572,334.3
		c1.3-11.3,11.2-9.7,18.1-10.4c3-0.3,6.1-0.1,9-1.4c9.3-4.3,18.6-7.1,28.4-1.7c3.6,2,6.1-0.1,7.2-2.8c3.5-7.4,9.3-13.6,11.4-21.7
		c15.8,3,16.4,16.1,17.8,28.1c1,8-0.3,15.8-1.9,23.6c-2,5.5-4.2,10.9-6.2,16.4c-3.5,5.8-8.8,9.7-15.4,9.9
		c-18.6,0.7-37.1,1.6-55.5,1.9c-3.8-1.2-5.2-4.2-6.7-7.5c-2.5-7.5-4.3-15.2-6.5-22.8C570.7,341.9,569,338,572,334.3z"/>
	<path id="MAC" fill="#B5E5BA" stroke="#FFFFFF" stroke-width="1.5" stroke-miterlimit="10" d="M584.4,374.6
		c12.8-1.6,25.7-3.8,38.6-2.8c11.7,0.9,23-0.1,32.9-7.7c-0.9,17.2-1.9,34.5-11,49.7c-4.6,7.8-6.8,16.4-8.4,25.1
		c-12-0.4-24.1-0.9-36.1-1.2c-4.6-1.6-5.2-5.8-5.8-9.7c-2.2-13.5-6.1-26.5-10.3-39.4C582.6,384.2,580,379.3,584.4,374.6z"/>
	<path id="REN" fill="#B5E5BA" stroke="#FFFFFF" stroke-width="1.5" stroke-miterlimit="10" d="M366,205.9c4.2,1.2,9.4,0.9,10.9,6.8
		c0.1,0.9,1.4,2.2,1.9,2.2c10.1-1.9,17.7,6.2,27.7,6.5c10.6,0.3,20.6-2.3,30.7-3.5c3-0.3,5.1-2.2,6.4-4.3
		c5.4-9.9,14.6-12.2,24.5-13.5c9.1,14.1,15.9,29.4,23.8,44.2c0,12.3,2.9,23.6,11.6,32.8c1.2,1.2,1.4,2.9,1.2,4.6
		c-2.5,2.2-5.1,1.2-7.5,0.3c-11.6-4.3-22.6-9.6-31.7-18.4c-14.2-13.8-23-14.6-40.7-4.3c-4.5,3.3-9.3,5.7-14.9,2.6
		c-16.5-1.9-32.9-2.8-49.3,0.4c-10.3,7.4-21.2,5.7-32,2.2c-4.3-12.8,0.9-22.3,10.1-30.7C347.3,224.2,356,214.5,366,205.9z"/>
	<path id="CNAV" fill="#657F67" stroke="#FFFFFF" stroke-width="1.5" stroke-miterlimit="10" d="M328.4,263.9
		c9.9-1.9,21,5.9,29.9-3.9c18-1.9,35.9-1.9,54.1,0c5.1,5.2,7.8-3.5,12.3-2.2c8.6,0.3,10.6,5.4,9.1,12.6c-1.9,10.3-3.3,20.7-5.7,30.9
		c-1.2,3.2-2,6.7-6.1,7.5c-9-3.2-19-0.3-27.5-5.1c3.3-11.3,2.9-10.7-8.4-12.5c-10.1-1.4-21-1.4-30-7.4c-4.2-2.8-6.8,3.2-11,0.1
		c-5.1-3.5-8.7-8-12.5-12.5C331.8,269,325.4,268.8,328.4,263.9z"/>
	<path id="LPRA" fill="#B5E5BA" stroke="#FFFFFF" stroke-width="1.5" stroke-miterlimit="10" d="M394.4,304.1
		c9.4,0.1,19.3-2.3,27.8,3.9c6.5-4.6,13.6-5.7,21.3-3.8c1,0.3,2,0.7,3,1.4c6.5,5.7,4.3,13,3.8,20.1c-0.3,2.8-2.2,5.5,0.1,8.3
		c3.2,9.9-0.9,14.5-11.7,12.9c-5.5-0.7-11-2.2-16.4-3.9c-7.4-2.5-10.4-0.7-10.1,7.5c0.1,4.9,2.5,10.6-2,14.9
		c0.1-5.2,0-10.6,0.3-15.8c0.3-6.4,0.1-12.2-8.8-12c-3.5,0-4.9-2.6-5.1-6.1C396.1,322.3,393.1,313.3,394.4,304.1z"/>
	<path id="SJ" fill="#DCF9DD" stroke="#FFFFFF" stroke-width="1.5" stroke-miterlimit="10" d="M584.4,374.6
		c-0.9,3.8,0.6,7.4,1.9,10.6c6.5,17,8.6,35.2,14.1,52.5c1.6,3.2,4.8,6.2,1.7,10.3c-12.6,5.7-25.4,10.7-38.1,15.9
		c-2.5-2.3-1.4-5.7-2-8.4c-5.9-7-4.5-15.8-5.4-23.9c-1.7-16.8-5.5-33.5-4.6-50.6c7.5-8.8,17-13.5,28.6-13.8
		C582.6,369.3,581.5,373,584.4,374.6z"/>
	<path id="GRA" fill="#324034" stroke="#FFFFFF" stroke-width="1.5" stroke-miterlimit="10" d="M563.8,463.9
		c0.6-1.9-0.1-5.4,1.7-5.2c11.6,0.1,20-8.3,30.4-10.9c1.9-0.4,3.9,0.1,5.9,0.3c2.6,10.4,1.9,21.2,2.2,31.7c2,8.4,0.4,17,0.9,25.5
		c0.1,2.3,0,4.5-2.9,5.4c-3.9,1.3-3.6,4.1-1.9,7.1c0.6,3.3,1.2,6.5,1.7,9.9c-9.9,1-18.8,8.4-29.4,3.8
		C569.6,509,566.7,486.4,563.8,463.9z"/>
	<path id="REC" fill="#97BF9B" stroke="#FFFFFF" stroke-width="1.5" stroke-miterlimit="10" d="M526.1,189.9c0-0.6,0-1.2,0-1.7
		c29,9.3,50.1,30.7,74.1,48.1c2.9,4.6,2,8.7-2.3,11.9c-4.3,1.9-7.8,4.3-10.1,9c-1.7,3.5-4.5,7.7-7.7,8.8
		c-17.4,5.8-17.4,20.1-18.3,34.3c-10.3,1-19.7-1-27.4-8.6c-0.6-1.6-1.2-3.2-0.9-4.9c2.5-15.7-4.1-29.4-8.7-43.6
		c-1.2-3.6-1.7-7.1-0.1-10.7C526.4,218.4,523.6,204.1,526.1,189.9z"/>
	<path id="PAC" fill="#B5E5BA" stroke="#FFFFFF" stroke-width="1.5" stroke-miterlimit="10" d="M496.4,382.3c1.7-0.4,4.2,1,7.4-1.4
		c7.8-6.1,33.9-6.2,43.2-1c0.1,2.8-2,3.5-3.9,3.5c-9.3,0-11.7,6.4-14.5,13.5c-6.4,16.2-11.4,32.9-19.7,48.3c-0.7,0-1.3,0.1-2,0.1
		c-13.3-5.9-26.7-11.9-40-17.8c4.3-11.6,8.6-23.2,13-34.8c1.7-4.3,2.6-8.6,0.7-13c4.6-0.1,9.3-0.3,13.8-0.4"/>
	<path id="SAN" fill="#B5E5BA" stroke="#FFFFFF" stroke-width="1.5" stroke-miterlimit="10" d="M548.6,379.4
		c-12.8-2.8-25.8-2-38.4-0.9c-5.5,0.6-10.6,6.2-17.1,2.2c1.9-2,4.3-1.2,6.5-1.3c3.5-0.1,4.6-1.9,4.5-5.1c-0.1-2.9,0.6-6.4-4.1-6.4
		c-3,0-6.1,0.1-6.1-4.2c0.4-13,1.4-25.9-1-39.1c-1.2-6.5-2.9-7.8-8.4-6.5c-3.9,1-8,0.9-12,0.3c-3-8.8-1.7-11.4,8-13.2
		c5.1-0.9,8.6-1.9,8.6-8.4c-0.1-12.8,1.7-14.1,14.6-12.6c11.7-1.4,22.5,1.6,32.3,7.8c8.6,2.8,17.2,5.4,25.8,8.1
		c3.5,11.3,6.8,22.8,10.3,34.1c2.9,11,5.7,22,8.6,33c-9,4.1-18,8.1-27,12.2C551.8,381.4,550.2,381.3,548.6,379.4z"/>
	<path id="SM" fill="#DCF9DD" stroke="#FFFFFF" stroke-width="1.5" stroke-miterlimit="10" d="M548.6,379.4c1.6,0,3.3,0,4.9,0.1
		c2.8,25.4,5.5,50.6,8.4,75.9c-6.1,1.4-11.7-2.2-17.8-1.9c-11-4.3-22.3-7.2-33.8-10c1.6-13.8,9-25.5,13.2-38.3
		c0.9-2.9,2.5-5.5,3.2-8.4C529.1,385.1,534.5,377,548.6,379.4z"/>
	<path id="QN" fill="#B5E5BA" stroke="#FFFFFF" stroke-width="1.5" stroke-miterlimit="10" d="M472.2,317.2c0.1,4.2-1,6.8-5.9,6.7
		c-3.3,0-7.2-1.2-10.1,1.7c-7.8,0.6-5.4-5.4-5.9-9.4c-0.6-4.2,2.6-10.7-6.1-10.4h0.1c-4.5-2.2-9.4-0.4-14.1-1.2
		c-2-0.3-4.9,0.6-4.1-3.3c1.4-9.9,1.9-19.9,4.8-29.3c2.3-7.7-0.4-11.2-6.2-14.2c8-9.7,26.2-11.7,35.7-2.6
		c12.6,12.3,26.7,21.6,43.5,26.7c2.2,1.9,1.9,3.8,0.3,5.8c-12.5-4.3-14.1-3.3-12.2,9.4c1.2,8-1,11.7-9.6,10.9
		C475.7,307.4,471.3,309.6,472.2,317.2z"/>
	<path id="IND" fill="#657F67" stroke="#FFFFFF" stroke-width="1.5" stroke-miterlimit="10" d="M503.9,287.8
		c-0.1-1.9-0.1-3.9-0.3-5.8c-1-1.6-1.7-3.6-3-4.8c-10-9-11.6-20.7-10.6-33.2c2.6-11.7,13.6-9.1,21.2-11.9c3.8-1.3,8.6-0.3,12.8-0.3
		c1.3,0.1,1.4,1.3,2,2c0.3,4.2-0.7,8.6,4.1,11.3c2.9,1.7,1.9,5.4,2.2,8.3c0.4,4.9-2,10.4,4.6,13.6c2.5,1.2,1.6,5.1,0.9,7.4
		c-1.9,5.8-1.6,11.7-1.9,17.7c-7.2-1.7-14.5-3.2-21.6-5.4C510.5,285.6,507.3,286.1,503.9,287.8z"/>
	<g id="CON">
		<path fill="#657F67" stroke="#FFFFFF" stroke-width="1.5" stroke-miterlimit="10" d="M490,244.1c-8.6-14.1-17.4-27.8-22-43.9
			c-1.2-7.7-4.9-14.3-7.7-21.3c-3.8-9.9-3.5-10.4,7.2-10.9c2.3-0.1,4.6-0.3,7-0.4c18.3,4.1,34.5,13.3,51.6,20.6
			c0.6,1,0.7,2.2,0.7,3.3c-0.9,13.2,1.6,26.5-1.4,39.7c-2.5,3.3-6.4,3.2-9.9,3.5C506,235.1,497.4,238,490,244.1z"/>
	</g>
</g>
</svg>
